<?xml version="1.0" encoding="utf-8"?>
<svg viewBox="0 0 500 500" xmlns="http://www.w3.org/2000/svg" xmlns:bx="https://boxy-svg.com">
  <rect style="stroke: rgb(20, 20, 20); fill: rgb(255, 255, 255); stroke-width: 17px; visibility: hidden;" width="479.129" height="479.129" ry="50" rx="50" x="10.008" y="10.008"/>
  <path d="M 249.573 249.573 m -203.63 0 a 203.63 203.63 0 1 0 407.26 0 a 203.63 203.63 0 1 0 -407.26 0 Z M 249.573 249.573 m -17.926 0 a 17.926 17.926 0 0 1 35.852 0 a 17.926 17.926 0 0 1 -35.852 0 Z" style="stroke: rgb(20, 20, 20); fill: rgb(40, 137, 255); stroke-width: 14px;" bx:shape="ring 249.573 249.573 17.926 17.926 203.63 203.63 1@2e4e8194"/>
  <ellipse style="stroke: rgb(20, 20, 20); fill: rgb(40, 137, 255); stroke-width: 25px;" cx="249.573" cy="249.573" rx="203.63" ry="203.63"/>
  <path style="stroke: rgb(20, 20, 20); stroke-linejoin: round; fill: rgb(111, 218, 140); stroke-linecap: round; stroke-width: 11.3754px;" transform="matrix(2.197723, 0, 0, 2.19772, -783.218201, -821.147461)" d="M 520.400529789 564.870021473 A 92.655 92.655 0 1 1 498.568969614 399.042858483 L 481.281940914 452.246862117 A 36.713 36.713 0 1 0 489.932332893 517.953112561 Z" bx:shape="pie 469.937 487.163 36.713 92.655 147 18 1@62822c64"/>
  <ellipse style="fill: rgb(20, 20, 20); visibility: hidden;" cx="250.077" cy="250.077" rx="17.249" ry="17.249"/>
  <rect x="295.487" y="47.353" width="14" height="142.672" style="fill: rgb(20, 20, 20); visibility: hidden;" transform="matrix(0.718243, 0.695792, -0.695792, 0.718243, 285.141144, -225.73381)" rx="2.076" ry="2.076"/>
  <rect x="295.487" y="38.778" width="14" height="116.839" style="fill: rgb(20, 20, 20); visibility: hidden;" transform="matrix(0.999882, 0.015375, -0.19745, 0.997082, 78.050156, 70.143066)" rx="7" ry="7"/>
  <path style="stroke: rgb(20, 20, 20); stroke-width: 4.5719px; fill: rgb(111, 218, 140);" transform="matrix(0.689991, 1.016135, -0.990421, 0.67253, 267.920959, -828.527039)" d="M 690.011 272.575 L 707.023 272.575 L 711.868 294.043 A 49.881 49.881 0 0 1 723.061 298.679 L 741.667 286.925 L 753.696 298.954 L 741.942 317.56 A 49.881 49.881 0 0 1 746.578 328.753 L 768.046 333.598 L 768.046 350.61 L 746.578 355.455 A 49.881 49.881 0 0 1 741.942 366.648 L 753.696 385.254 L 741.667 397.283 L 723.061 385.529 A 49.881 49.881 0 0 1 711.868 390.165 L 707.023 411.633 L 690.011 411.633 L 685.166 390.165 A 49.881 49.881 0 0 1 673.973 385.529 L 655.367 397.283 L 643.338 385.254 L 655.092 366.648 A 49.881 49.881 0 0 1 650.456 355.455 L 628.988 350.61 L 628.988 333.598 L 650.456 328.753 A 49.881 49.881 0 0 1 655.092 317.56 L 643.338 298.954 L 655.367 286.925 L 673.973 298.679 A 49.881 49.881 0 0 1 685.166 294.043 Z M 698.517 310.435 A 31.669 31.669 0 0 0 698.517 373.773 A 31.669 31.669 0 0 0 698.517 310.435" bx:shape="cog 698.517 342.104 31.669 49.881 69.529 0.38 8 1@52e3bb33"/>
</svg>