<?xml version="1.0" encoding="utf-8"?>
<svg viewBox="0 0 500 500" xmlns="http://www.w3.org/2000/svg" xmlns:bx="https://boxy-svg.com">
  <circle style="stroke-width: 47px; fill: rgb(77, 123, 179); stroke: rgb(20, 20, 20);" cx="230.123" cy="268.841" r="204.155"/>
  <path style="stroke-width: 16.5183px; fill: rgb(96, 169, 115); stroke: rgb(20, 20, 20);" transform="matrix(2.435739, 0, 0, 2.435739, -994.942444, -1338.193604)" d="M 550.711426096 728.345398768 A 83.803 83.803 0 1 1 520.067623426 577.726296616 L 510.658995681 621.990409992 A 38.55 38.55 0 1 0 524.755371621 691.276311307 Z" bx:shape="pie 502.644 659.698 38.55 83.803 145 12 1@7509da81"/>
  <path style="stroke-width: 5.73875px; fill: rgb(96, 169, 115);" transform="matrix(1.191777, 0.38402, -0.38402, 1.191777, 304.660828, -1342.530151)" d="M 442.708 985.483 L 453.865 985.483 L 456.219 1002.523 A 29.638 29.638 0 0 1 462.869 1005.278 L 476.583 994.893 L 484.472 1002.782 L 474.088 1016.496 A 29.638 29.638 0 0 1 476.843 1023.147 L 493.883 1025.501 L 493.883 1036.658 L 476.843 1039.012 A 29.638 29.638 0 0 1 474.088 1045.663 L 484.472 1059.377 L 476.583 1067.266 L 462.869 1056.881 A 29.638 29.638 0 0 1 456.219 1059.636 L 453.865 1076.676 L 442.708 1076.676 L 440.353 1059.636 A 29.638 29.638 0 0 1 433.703 1056.881 L 419.989 1067.266 L 412.1 1059.377 L 422.484 1045.663 A 29.638 29.638 0 0 1 419.73 1039.012 L 402.689 1036.658 L 402.689 1025.501 L 419.73 1023.147 A 29.638 29.638 0 0 1 422.484 1016.496 L 412.1 1002.782 L 419.989 994.893 L 433.703 1005.278 A 29.638 29.638 0 0 1 440.353 1002.523 Z M 448.286 1017.4 A 13.679 13.679 0 0 0 448.286 1044.758 A 13.679 13.679 0 0 0 448.286 1017.4" bx:shape="cog 448.286 1031.079 13.679 29.638 45.597 0.38 8 1@afcd6b19"/>
</svg>